<svg xmlns="http://www.w3.org/2000/svg" xmlns:xlink="http://www.w3.org/1999/xlink" viewBox="0 0 554.32986 405.44981"><defs><style>.a{fill:none;}.b{fill:#f3f6ff;}.c{clip-path:url(#a);}.d{fill:#dce4f7;}.e{clip-path:url(#b);}.f{clip-path:url(#c);}.g{clip-path:url(#d);}.h{clip-path:url(#e);}.i{clip-path:url(#f);}.j{fill:#f5edff;}.k{fill:url(#g);}.l{fill:url(#h);}</style><clipPath id="a"><polygon class="a" points="281.081 350.43 189.049 175.215 332.659 175.215 332.633 350.43 281.081 350.43"/></clipPath><clipPath id="b"><polygon class="a" points="281.081 350.43 73.032 350.43 163.861 260.215 163.861 175.215 189.049 175.215 281.081 350.43"/></clipPath><clipPath id="c"><polygon class="a" points="0 350.43 0 175.215 163.861 175.215 163.861 260.215 73.032 350.43 0 350.43"/></clipPath><clipPath id="d"><polygon class="a" points="51.579 0 143.61 175.215 0 175.215 0.027 0 51.579 0"/></clipPath><clipPath id="e"><polygon class="a" points="51.579 0 259.628 0 168.798 89.909 168.798 175.215 143.61 175.215 51.579 0"/></clipPath><clipPath id="f"><polygon class="a" points="332.659 0 332.659 175.215 168.798 175.215 168.798 89.909 259.628 0 332.659 0"/></clipPath><pattern id="g" width="36.8761" height="21.29047" patternTransform="matrix(-1.76816, 7.38493, -3.48431, 0.53625, 2975.76164, 493.47274)" patternUnits="userSpaceOnUse" viewBox="0 0 36.876 21.29"><rect class="a" width="36.8761" height="21.29047"/><polygon class="j" points="36.876 0 36.127 0 36.876 0.433 36.876 0"/><polygon class="j" points="32.028 0 36.876 2.799 36.876 1.933 33.528 0 32.028 0"/><polygon class="j" points="27.931 0 36.876 5.164 36.876 4.298 29.431 0 27.931 0"/><polygon class="j" points="23.834 0 36.876 7.53 36.876 6.664 25.334 0 23.834 0"/><polygon class="j" points="19.737 0 36.876 9.895 36.876 9.03 21.237 0 19.737 0"/><polygon class="j" points="15.64 0 36.876 12.261 36.876 11.395 17.139 0 15.64 0"/><polygon class="j" points="11.542 0 36.876 14.627 36.876 13.761 13.042 0 11.542 0"/><polygon class="j" points="7.444 0 36.876 16.992 36.876 16.127 8.944 0 7.444 0"/><polygon class="j" points="3.347 0 36.876 19.358 36.876 18.492 4.847 0 3.347 0"/><polygon class="j" points="0 0 0 0.433 36.126 21.291 36.876 21.291 36.876 20.858 0.75 0 0 0"/><polygon class="j" points="0 2.799 32.029 21.291 33.529 21.291 0 1.933 0 2.799"/><polygon class="j" points="0 5.164 27.932 21.291 29.431 21.291 0 4.298 0 5.164"/><polygon class="j" points="0 7.53 23.834 21.291 25.334 21.291 0 6.664 0 7.53"/><polygon class="j" points="0 9.895 19.737 21.291 21.237 21.291 0 9.029 0 9.895"/><polygon class="j" points="0 12.261 15.64 21.291 17.139 21.291 0 11.395 0 12.261"/><polygon class="j" points="0 14.627 11.542 21.291 13.042 21.291 0 13.761 0 14.627"/><polygon class="j" points="0 16.992 7.445 21.291 8.944 21.291 0 16.127 0 16.992"/><polygon class="j" points="0 19.358 3.348 21.291 4.847 21.291 0 18.492 0 19.358"/><polygon class="j" points="0 21.291 0.75 21.291 0 20.858 0 21.291"/></pattern><pattern id="h" width="332.65948" height="350.43023" patternTransform="matrix(2.8457, 0.93602, -0.44944, 1.36639, 719.27845, -959.18783)" patternUnits="userSpaceOnUse" viewBox="0 0 332.659 350.43"><rect class="a" width="332.65948" height="350.43023"/><rect class="b" x="-0.00001" y="0.00013" width="332.65948" height="350.43023"/><g class="c"><polygon class="d" points="247.679 445.909 246.974 445.204 464.842 227.335 465.547 228.04 247.679 445.909"/><polygon class="d" points="246.169 444.399 245.464 443.694 463.332 225.826 464.037 226.531 246.169 444.399"/><polygon class="d" points="244.659 442.888 243.954 442.183 461.823 224.315 462.528 225.02 244.659 442.888"/><polygon class="d" points="243.15 441.378 242.444 440.673 460.312 222.806 461.017 223.511 243.15 441.378"/><polygon class="d" points="241.64 439.869 240.935 439.164 458.803 221.296 459.508 222.001 241.64 439.869"/><polygon class="d" points="240.13 438.359 239.424 437.654 457.293 219.786 457.998 220.491 240.13 438.359"/><polygon class="d" points="238.62 436.85 237.915 436.145 455.782 218.276 456.488 218.981 238.62 436.85"/><polygon class="d" points="237.11 435.34 236.405 434.635 454.273 216.766 454.978 217.472 237.11 435.34"/><polygon class="d" points="235.6 433.831 234.895 433.125 452.763 215.257 453.468 215.962 235.6 433.831"/><polygon class="d" points="234.09 432.319 233.385 431.614 451.254 213.746 451.959 214.451 234.09 432.319"/><polygon class="d" points="232.581 430.809 231.876 430.104 449.743 212.237 450.448 212.942 232.581 430.809"/><polygon class="d" points="231.071 429.3 230.366 428.595 448.234 210.727 448.939 211.432 231.071 429.3"/><polygon class="d" points="229.561 427.79 228.856 427.085 446.724 209.217 447.429 209.922 229.561 427.79"/><polygon class="d" points="228.051 426.281 227.346 425.576 445.214 207.707 445.919 208.412 228.051 426.281"/><polygon class="d" points="226.542 424.771 225.836 424.066 443.704 206.198 444.409 206.903 226.542 424.771"/><polygon class="d" points="225.031 423.262 224.326 422.557 442.194 204.688 442.9 205.393 225.031 423.262"/><polygon class="d" points="223.521 421.75 222.816 421.045 440.685 203.177 441.39 203.883 223.521 421.75"/><polygon class="d" points="222.012 420.241 221.307 419.535 439.174 201.668 439.879 202.373 222.012 420.241"/><polygon class="d" points="220.502 418.731 219.797 418.026 437.665 200.158 438.37 200.863 220.502 418.731"/><polygon class="d" points="218.992 417.221 218.287 416.516 436.155 198.648 436.86 199.353 218.992 417.221"/><polygon class="d" points="217.482 415.712 216.777 415.007 434.645 197.138 435.35 197.843 217.482 415.712"/><polygon class="d" points="215.973 414.202 215.268 413.497 433.135 195.629 433.84 196.334 215.973 414.202"/><polygon class="d" points="214.462 412.693 213.757 411.988 431.626 194.119 432.331 194.824 214.462 412.693"/><polygon class="d" points="212.953 411.181 212.247 410.476 430.116 192.609 430.821 193.314 212.953 411.181"/><polygon class="d" points="211.443 409.672 210.738 408.967 428.605 191.099 429.311 191.804 211.443 409.672"/><polygon class="d" points="209.933 408.162 209.228 407.457 427.096 189.589 427.801 190.295 209.933 408.162"/><polygon class="d" points="208.423 406.653 207.718 405.948 425.586 188.079 426.291 188.784 208.423 406.653"/><polygon class="d" points="206.913 405.143 206.208 404.438 424.076 186.569 424.781 187.274 206.913 405.143"/><polygon class="d" points="205.404 403.633 204.699 402.928 422.566 185.06 423.271 185.765 205.404 403.633"/><polygon class="d" points="203.893 402.124 203.188 401.419 421.057 183.549 421.762 184.254 203.893 402.124"/><polygon class="d" points="202.384 400.612 201.679 399.907 419.547 182.04 420.252 182.745 202.384 400.612"/><polygon class="d" points="200.874 399.103 200.169 398.398 418.037 180.53 418.742 181.235 200.874 399.103"/><polygon class="d" points="199.364 397.593 198.658 396.888 416.527 179.021 417.232 179.726 199.364 397.593"/><polygon class="d" points="197.854 396.084 197.149 395.379 415.017 177.51 415.723 178.215 197.854 396.084"/><polygon class="d" points="196.344 394.574 195.639 393.869 413.507 176.001 414.212 176.706 196.344 394.574"/><polygon class="d" points="194.835 393.065 194.13 392.36 411.997 174.491 412.702 175.196 194.835 393.065"/><polygon class="d" points="193.324 391.553 192.619 390.848 410.488 172.98 411.193 173.686 193.324 391.553"/><polygon class="d" points="191.815 390.044 191.11 389.338 408.977 171.471 409.682 172.176 191.815 390.044"/><polygon class="d" points="190.305 388.534 189.6 387.829 407.468 169.961 408.173 170.666 190.305 388.534"/><polygon class="d" points="188.795 387.024 188.09 386.319 405.958 168.452 406.663 169.157 188.795 387.024"/><polygon class="d" points="187.285 385.515 186.58 384.81 404.449 166.941 405.154 167.646 187.285 385.515"/><polygon class="d" points="185.776 384.005 185.07 383.3 402.938 165.432 403.643 166.137 185.776 384.005"/><polygon class="d" points="184.266 382.496 183.561 381.791 401.428 163.922 402.134 164.627 184.266 382.496"/><polygon class="d" points="182.755 380.984 182.05 380.279 399.919 162.412 400.624 163.117 182.755 380.984"/><polygon class="d" points="181.246 379.475 180.541 378.77 398.408 160.902 399.114 161.607 181.246 379.475"/><polygon class="d" points="179.736 377.965 179.031 377.26 396.899 159.392 397.604 160.098 179.736 377.965"/><polygon class="d" points="178.226 376.456 177.521 375.75 395.389 157.883 396.094 158.588 178.226 376.456"/><polygon class="d" points="176.716 374.946 176.011 374.241 393.88 156.372 394.585 157.077 176.716 374.946"/><polygon class="d" points="175.207 373.436 174.502 372.731 392.369 154.863 393.074 155.568 175.207 373.436"/><polygon class="d" points="173.697 371.927 172.992 371.222 390.86 153.353 391.565 154.058 173.697 371.927"/><polygon class="d" points="172.187 370.415 171.482 369.71 389.35 151.843 390.055 152.548 172.187 370.415"/><polygon class="d" points="170.677 368.906 169.972 368.201 387.84 150.333 388.545 151.038 170.677 368.906"/><polygon class="d" points="169.167 367.396 168.462 366.691 386.33 148.824 387.035 149.529 169.167 367.396"/><polygon class="d" points="167.657 365.887 166.952 365.182 384.82 147.314 385.526 148.019 167.657 365.887"/><polygon class="d" points="166.147 364.377 165.442 363.672 383.311 145.803 384.016 146.509 166.147 364.377"/><polygon class="d" points="164.638 362.868 163.933 362.162 381.8 144.294 382.505 144.999 164.638 362.868"/><polygon class="d" points="163.128 361.358 162.423 360.653 380.291 142.784 380.996 143.489 163.128 361.358"/><polygon class="d" points="161.618 359.846 160.913 359.141 378.781 141.274 379.486 141.979 161.618 359.846"/><polygon class="d" points="160.108 358.337 159.403 357.632 377.271 139.764 377.976 140.469 160.108 358.337"/><polygon class="d" points="158.599 356.827 157.894 356.122 375.761 138.255 376.466 138.96 158.599 356.827"/><polygon class="d" points="157.088 355.318 156.383 354.613 374.252 136.744 374.957 137.449 157.088 355.318"/><polygon class="d" points="155.579 353.808 154.873 353.103 372.742 135.235 373.447 135.94 155.579 353.808"/><polygon class="d" points="154.069 352.299 153.364 351.594 371.231 133.725 371.937 134.43 154.069 352.299"/><polygon class="d" points="152.559 350.788 151.854 350.083 369.722 132.215 370.427 132.921 152.559 350.788"/><polygon class="d" points="151.049 349.279 150.344 348.573 368.212 130.705 368.917 131.41 151.049 349.279"/><polygon class="d" points="149.539 347.769 148.834 347.064 366.702 129.195 367.407 129.9 149.539 347.769"/><polygon class="d" points="148.03 346.258 147.325 345.553 365.192 127.686 365.897 128.391 148.03 346.258"/><polygon class="d" points="146.519 344.749 145.814 344.044 363.683 126.175 364.388 126.88 146.519 344.749"/><polygon class="d" points="145.01 343.239 144.305 342.534 362.173 124.666 362.878 125.371 145.01 343.239"/><polygon class="d" points="143.5 341.729 142.795 341.024 360.663 123.156 361.368 123.861 143.5 341.729"/><polygon class="d" points="141.99 340.219 141.284 339.514 359.153 121.647 359.858 122.352 141.99 340.219"/><polygon class="d" points="140.48 338.71 139.775 338.005 357.643 120.136 358.349 120.841 140.48 338.71"/><polygon class="d" points="138.97 337.2 138.265 336.495 356.133 118.626 356.838 119.332 138.97 337.2"/><polygon class="d" points="137.461 335.69 136.756 334.985 354.623 117.117 355.328 117.822 137.461 335.69"/><polygon class="d" points="135.95 334.18 135.245 333.475 353.114 115.606 353.819 116.312 135.95 334.18"/><polygon class="d" points="134.441 332.671 133.736 331.965 351.603 114.097 352.308 114.802 134.441 332.671"/><polygon class="d" points="132.931 331.16 132.226 330.455 350.094 112.587 350.799 113.292 132.931 331.16"/><polygon class="d" points="131.421 329.65 130.716 328.945 348.584 111.078 349.289 111.783 131.421 329.65"/><polygon class="d" points="129.911 328.141 129.206 327.436 347.075 109.567 347.78 110.272 129.911 328.141"/><polygon class="d" points="128.402 326.631 127.696 325.926 345.564 108.058 346.269 108.763 128.402 326.631"/><polygon class="d" points="126.892 325.121 126.187 324.416 344.054 106.548 344.76 107.253 126.892 325.121"/><polygon class="d" points="125.381 323.611 124.676 322.906 342.545 105.038 343.25 105.743 125.381 323.611"/><polygon class="d" points="123.872 322.102 123.167 321.397 341.034 103.528 341.739 104.233 123.872 322.102"/><polygon class="d" points="122.362 320.591 121.657 319.886 339.525 102.018 340.23 102.724 122.362 320.591"/><polygon class="d" points="120.852 319.082 120.147 318.376 338.015 100.509 338.72 101.214 120.852 319.082"/><polygon class="d" points="119.342 317.572 118.637 316.867 336.506 98.998 337.211 99.703 119.342 317.572"/><polygon class="d" points="117.833 316.061 117.128 315.356 334.995 97.489 335.7 98.194 117.833 316.061"/><polygon class="d" points="116.323 314.552 115.618 313.847 333.486 95.979 334.191 96.684 116.323 314.552"/><polygon class="d" points="114.813 313.042 114.107 312.337 331.976 94.469 332.681 95.174 114.813 313.042"/><polygon class="d" points="113.303 311.533 112.598 310.828 330.466 92.959 331.171 93.664 113.303 311.533"/><polygon class="d" points="111.793 310.022 111.088 309.317 328.956 91.45 329.661 92.155 111.793 310.022"/><polygon class="d" points="110.283 308.513 109.578 307.808 327.446 89.939 328.151 90.644 110.283 308.513"/><polygon class="d" points="108.773 307.003 108.068 306.298 325.937 88.429 326.642 89.135 108.773 307.003"/><polygon class="d" points="107.264 305.493 106.559 304.787 324.426 86.92 325.131 87.625 107.264 305.493"/><polygon class="d" points="105.754 303.983 105.049 303.278 322.917 85.41 323.622 86.115 105.754 303.983"/><polygon class="d" points="104.244 302.473 103.539 301.768 321.407 83.9 322.112 84.605 104.244 302.473"/><polygon class="d" points="102.734 300.964 102.029 300.259 319.897 82.39 320.602 83.095 102.734 300.964"/><polygon class="d" points="101.225 299.453 100.519 298.748 318.387 80.881 319.092 81.586 101.225 299.453"/><polygon class="d" points="99.714 297.944 99.009 297.239 316.878 79.37 317.583 80.075 99.714 297.944"/><polygon class="d" points="98.205 296.434 97.499 295.729 315.368 77.861 316.073 78.566 98.205 296.434"/><polygon class="d" points="96.695 294.924 95.99 294.219 313.857 76.351 314.563 77.056 96.695 294.924"/><polygon class="d" points="95.184 293.414 94.479 292.709 312.348 74.841 313.053 75.547 95.184 293.414"/><polygon class="d" points="93.675 291.905 92.97 291.199 310.838 73.331 311.543 74.036 93.675 291.905"/><polygon class="d" points="92.165 290.395 91.46 289.69 309.328 71.821 310.033 72.526 92.165 290.395"/><polygon class="d" points="90.656 288.884 89.951 288.179 307.818 70.312 308.523 71.017 90.656 288.884"/><polygon class="d" points="89.145 287.375 88.44 286.67 306.309 68.801 307.014 69.506 89.145 287.375"/><polygon class="d" points="87.636 285.865 86.931 285.16 304.799 67.292 305.504 67.997 87.636 285.865"/><polygon class="d" points="86.126 284.355 85.421 283.65 303.289 65.782 303.994 66.487 86.126 284.355"/><polygon class="d" points="84.616 282.845 83.91 282.14 301.779 64.273 302.484 64.978 84.616 282.845"/><polygon class="d" points="83.106 281.336 82.401 280.631 300.269 62.762 300.975 63.467 83.106 281.336"/><polygon class="d" points="81.596 279.826 80.891 279.121 298.759 61.252 299.464 61.958 81.596 279.826"/><polygon class="d" points="80.087 278.316 79.382 277.61 297.249 59.743 297.954 60.448 80.087 278.316"/><polygon class="d" points="78.576 276.806 77.871 276.101 295.74 58.232 296.445 58.937 78.576 276.806"/><polygon class="d" points="77.067 275.296 76.362 274.591 294.229 56.723 294.934 57.428 77.067 275.296"/></g><g class="e"><rect class="d" x="47.54852" y="371.7652" width="308.11204" height="0.99728"/><rect class="d" x="47.54852" y="369.63039" width="308.11204" height="0.99728"/><rect class="d" x="47.54852" y="367.49364" width="308.11204" height="0.99728"/><rect class="d" x="47.54852" y="365.35882" width="308.11204" height="0.99728"/><rect class="d" x="47.54852" y="363.22401" width="308.11204" height="0.99728"/><rect class="d" x="47.54852" y="361.0892" width="308.11204" height="0.99728"/><rect class="d" x="47.54852" y="358.95439" width="308.11204" height="0.99728"/><rect class="d" x="47.54852" y="356.81763" width="308.11204" height="0.99728"/><rect class="d" x="47.54852" y="354.68282" width="308.11204" height="0.99728"/><rect class="d" x="47.54852" y="352.54801" width="308.11204" height="0.99728"/><rect class="d" x="47.54852" y="350.41223" width="308.11204" height="0.99826"/><rect class="d" x="47.54852" y="348.27742" width="308.11204" height="0.99728"/><rect class="d" x="47.54852" y="346.14163" width="308.11204" height="0.99728"/><rect class="d" x="47.54852" y="344.00682" width="308.11204" height="0.99728"/><rect class="d" x="47.54852" y="341.87201" width="308.11204" height="0.99728"/><rect class="d" x="47.54852" y="339.73622" width="308.11204" height="0.99728"/><rect class="d" x="47.54852" y="337.60141" width="308.11204" height="0.99728"/><rect class="d" x="47.54852" y="335.46563" width="308.11204" height="0.99728"/><rect class="d" x="47.54852" y="333.33082" width="308.11204" height="0.99728"/><rect class="d" x="47.54852" y="331.19503" width="308.11204" height="0.99728"/><rect class="d" x="47.54852" y="329.06022" width="308.11204" height="0.99728"/><rect class="d" x="47.54852" y="326.92492" width="308.11204" height="0.99728"/><rect class="d" x="47.54852" y="324.78963" width="308.11204" height="0.99728"/><rect class="d" x="47.54852" y="322.65481" width="308.11204" height="0.99728"/><rect class="d" x="47.54852" y="320.51903" width="308.11204" height="0.99728"/><rect class="d" x="47.54852" y="318.38422" width="308.11204" height="0.99728"/><rect class="d" x="47.54852" y="316.24843" width="308.11204" height="0.99728"/><rect class="d" x="47.54852" y="314.11362" width="308.11204" height="0.99728"/><rect class="d" x="47.54852" y="311.97784" width="308.11204" height="0.99728"/><rect class="d" x="47.54852" y="309.84303" width="308.11204" height="0.99728"/><rect class="d" x="47.54852" y="307.70822" width="308.11204" height="0.99728"/><rect class="d" x="47.54852" y="305.57243" width="308.11204" height="0.99728"/><rect class="d" x="47.54852" y="303.43762" width="308.11204" height="0.99728"/><rect class="d" x="47.54852" y="301.30184" width="308.11204" height="0.99728"/><rect class="d" x="47.54852" y="299.16702" width="308.11204" height="0.99728"/><rect class="d" x="47.54852" y="297.03124" width="308.11204" height="0.99728"/><rect class="d" x="47.54852" y="294.89643" width="308.11204" height="0.99728"/><rect class="d" x="47.54852" y="292.76064" width="308.11204" height="0.99728"/><rect class="d" x="47.54852" y="290.62583" width="308.11204" height="0.99728"/><rect class="d" x="47.54852" y="288.49102" width="308.11204" height="0.99728"/><rect class="d" x="47.54852" y="286.35524" width="308.11204" height="0.99728"/><rect class="d" x="47.54852" y="284.22043" width="308.11204" height="0.99728"/><rect class="d" x="47.54852" y="282.08464" width="308.11204" height="0.99728"/><rect class="d" x="47.54852" y="279.94983" width="308.11204" height="0.99728"/><rect class="d" x="47.54852" y="277.81405" width="308.11204" height="0.99728"/><rect class="d" x="47.54852" y="275.67923" width="308.11204" height="0.99728"/><rect class="d" x="47.54852" y="273.54394" width="308.11204" height="0.99728"/><rect class="d" x="47.54852" y="271.40864" width="308.11204" height="0.99728"/><rect class="d" x="47.54852" y="269.27383" width="308.11204" height="0.99728"/><rect class="d" x="47.54852" y="267.13804" width="308.11204" height="0.99728"/><rect class="d" x="47.54852" y="265.00323" width="308.11204" height="0.99728"/><rect class="d" x="47.54852" y="262.86745" width="308.11204" height="0.99728"/><rect class="d" x="47.54852" y="260.73264" width="308.11204" height="0.99728"/><rect class="d" x="47.54852" y="258.59685" width="308.11204" height="0.99728"/><rect class="d" x="47.54852" y="256.46204" width="308.11204" height="0.99728"/><rect class="d" x="47.54852" y="254.32674" width="308.11204" height="0.99728"/><rect class="d" x="47.54852" y="252.19145" width="308.11204" height="0.99728"/><rect class="d" x="47.54852" y="250.05663" width="308.11204" height="0.99728"/><rect class="d" x="47.54852" y="247.92085" width="308.11204" height="0.99728"/><rect class="d" x="47.54852" y="245.78604" width="308.11204" height="0.99728"/><rect class="d" x="47.54852" y="243.65025" width="308.11204" height="0.99728"/><rect class="d" x="47.54852" y="241.51544" width="308.11204" height="0.99728"/><rect class="d" x="47.54852" y="239.37966" width="308.11204" height="0.99728"/><rect class="d" x="47.54852" y="237.24485" width="308.11204" height="0.99728"/><rect class="d" x="47.54852" y="235.11004" width="308.11204" height="0.99728"/><rect class="d" x="47.54852" y="232.97425" width="308.11204" height="0.99728"/><rect class="d" x="47.54852" y="230.83944" width="308.11204" height="0.99728"/><rect class="d" x="47.54852" y="228.70366" width="308.11204" height="0.99728"/><rect class="d" x="47.54852" y="226.56884" width="308.11204" height="0.99728"/><rect class="d" x="47.54852" y="224.43306" width="308.11204" height="0.99728"/><rect class="d" x="47.54852" y="222.29825" width="308.11204" height="0.99728"/><rect class="d" x="47.54852" y="220.16246" width="308.11204" height="0.99728"/><rect class="d" x="47.54852" y="218.02765" width="308.11204" height="0.99728"/><rect class="d" x="47.54852" y="215.89284" width="308.11204" height="0.99728"/><rect class="d" x="47.54852" y="213.75706" width="308.11204" height="0.99728"/><rect class="d" x="47.54852" y="211.62225" width="308.11204" height="0.99728"/><rect class="d" x="47.54852" y="209.48646" width="308.11204" height="0.99728"/><rect class="d" x="47.54852" y="207.35165" width="308.11204" height="0.99728"/><rect class="d" x="47.54852" y="205.21587" width="308.11204" height="0.99728"/><rect class="d" x="47.54852" y="203.08105" width="308.11204" height="0.99728"/><rect class="d" x="47.54852" y="200.94576" width="308.11204" height="0.99728"/><rect class="d" x="47.54852" y="198.81046" width="308.11204" height="0.99728"/><rect class="d" x="47.54852" y="196.67565" width="308.11204" height="0.99728"/><rect class="d" x="47.54852" y="194.53986" width="308.11204" height="0.99728"/><rect class="d" x="47.54852" y="192.40505" width="308.11204" height="0.99728"/><rect class="d" x="47.54852" y="190.26927" width="308.11204" height="0.99728"/><rect class="d" x="47.54852" y="188.13446" width="308.11204" height="0.99728"/><rect class="d" x="47.54852" y="185.99867" width="308.11204" height="0.99728"/><rect class="d" x="47.54852" y="183.86386" width="308.11204" height="0.99728"/><rect class="d" x="47.54852" y="181.72856" width="308.11204" height="0.99728"/><rect class="d" x="47.54852" y="179.59326" width="308.11204" height="0.99728"/><rect class="d" x="47.54852" y="177.45845" width="308.11204" height="0.99728"/><rect class="d" x="47.54852" y="175.32267" width="308.11204" height="0.99728"/><rect class="d" x="47.54852" y="173.18786" width="308.11204" height="0.99728"/><rect class="d" x="47.54852" y="171.05207" width="308.11204" height="0.99728"/><rect class="d" x="47.54852" y="168.91726" width="308.11204" height="0.99728"/><rect class="d" x="47.54852" y="166.78148" width="308.11204" height="0.99728"/><rect class="d" x="47.54852" y="164.64667" width="308.11204" height="0.99728"/><rect class="d" x="47.54852" y="162.51186" width="308.11204" height="0.99728"/><rect class="d" x="47.54852" y="160.37607" width="308.11204" height="0.99728"/><rect class="d" x="47.54852" y="158.24126" width="308.11204" height="0.99728"/><rect class="d" x="47.54852" y="156.10548" width="308.11204" height="0.99728"/><rect class="d" x="47.54852" y="153.97066" width="308.11204" height="0.99728"/><rect class="d" x="47.54852" y="151.83488" width="308.11204" height="0.99728"/><rect class="d" x="47.54852" y="149.70007" width="308.11204" height="0.99728"/><rect class="d" x="47.54852" y="147.56428" width="308.11204" height="0.99728"/><rect class="d" x="47.54852" y="145.42947" width="308.11204" height="0.99728"/><rect class="d" x="47.54852" y="143.29466" width="308.11204" height="0.99728"/><rect class="d" x="47.54852" y="141.15888" width="308.11204" height="0.99728"/><rect class="d" x="47.54852" y="139.02407" width="308.11204" height="0.99728"/><rect class="d" x="47.54852" y="136.88828" width="308.11204" height="0.99728"/><rect class="d" x="47.54852" y="134.75347" width="308.11204" height="0.99728"/><rect class="d" x="47.54852" y="132.61769" width="308.11204" height="0.99728"/><rect class="d" x="47.54852" y="130.48287" width="308.11204" height="0.99728"/></g><g class="f"><rect class="d" x="195.09882" y="91.992" width="0.99728" height="308.11204"/><rect class="d" x="192.96401" y="91.992" width="0.99728" height="308.11204"/><rect class="d" x="190.82823" y="91.992" width="0.99728" height="308.11204"/><rect class="d" x="188.69342" y="91.992" width="0.99728" height="308.11204"/><rect class="d" x="186.55763" y="91.992" width="0.99728" height="308.11204"/><rect class="d" x="184.42282" y="91.992" width="0.99728" height="308.11204"/><rect class="d" x="182.28752" y="91.992" width="0.99728" height="308.11204"/><rect class="d" x="180.15222" y="91.992" width="0.99728" height="308.11204"/><rect class="d" x="178.01741" y="91.992" width="0.99728" height="308.11204"/><rect class="d" x="175.88163" y="91.992" width="0.99728" height="308.11204"/><rect class="d" x="173.74682" y="91.992" width="0.99728" height="308.11204"/><rect class="d" x="171.61103" y="91.992" width="0.99728" height="308.11204"/><rect class="d" x="169.47622" y="91.992" width="0.99728" height="308.11204"/><rect class="d" x="167.34044" y="91.992" width="0.99728" height="308.11204"/><rect class="d" x="165.20563" y="91.992" width="0.99728" height="308.11204"/><rect class="d" x="163.07081" y="91.992" width="0.99728" height="308.11204"/><rect class="d" x="160.93503" y="91.992" width="0.99728" height="308.11204"/><rect class="d" x="158.80022" y="91.992" width="0.99728" height="308.11204"/><rect class="d" x="156.66443" y="91.992" width="0.99728" height="308.11204"/><rect class="d" x="154.52962" y="91.992" width="0.99728" height="308.11204"/><rect class="d" x="152.39384" y="91.992" width="0.99728" height="308.11204"/><rect class="d" x="150.25903" y="91.992" width="0.99728" height="308.11204"/><rect class="d" x="148.12324" y="91.992" width="0.99728" height="308.11204"/><rect class="d" x="145.98843" y="91.992" width="0.99728" height="308.11204"/><rect class="d" x="143.8536" y="91.992" width="0.99728" height="308.11204"/><rect class="d" x="141.71784" y="91.992" width="0.99728" height="308.11204"/><rect class="d" x="139.58302" y="91.992" width="0.99728" height="308.11204"/><rect class="d" x="137.44724" y="91.992" width="0.99728" height="308.11204"/><rect class="d" x="135.31243" y="91.992" width="0.99728" height="308.11204"/><rect class="d" x="133.17664" y="91.992" width="0.99728" height="308.11204"/><rect class="d" x="131.04183" y="91.992" width="0.99728" height="308.11204"/><rect class="d" x="128.90654" y="91.992" width="0.99728" height="308.11204"/><rect class="d" x="126.77124" y="91.992" width="0.99728" height="308.11204"/><rect class="d" x="124.63643" y="91.992" width="0.99728" height="308.11204"/><rect class="d" x="122.50064" y="91.992" width="0.99728" height="308.11204"/><rect class="d" x="120.36583" y="91.992" width="0.99728" height="308.11204"/><rect class="d" x="118.23005" y="91.992" width="0.99728" height="308.11204"/><rect class="d" x="116.09523" y="91.992" width="0.99728" height="308.11204"/><rect class="d" x="113.95945" y="91.992" width="0.99728" height="308.11204"/><rect class="d" x="111.82464" y="91.992" width="0.99728" height="308.11204"/><rect class="d" x="109.68983" y="91.992" width="0.99728" height="308.11204"/><rect class="d" x="107.55404" y="91.992" width="0.99728" height="308.11204"/><rect class="d" x="105.41923" y="91.992" width="0.99728" height="308.11204"/><rect class="d" x="103.28345" y="91.992" width="0.99728" height="308.11204"/><rect class="d" x="101.14864" y="91.992" width="0.99728" height="308.11204"/><rect class="d" x="99.01285" y="91.992" width="0.99728" height="308.11204"/><rect class="d" x="96.87804" y="91.992" width="0.99728" height="308.11204"/><rect class="d" x="94.74226" y="91.992" width="0.99728" height="308.11204"/><rect class="d" x="92.60745" y="91.992" width="0.99728" height="308.11204"/><rect class="d" x="90.47263" y="91.992" width="0.99728" height="308.11204"/><rect class="d" x="88.33685" y="91.992" width="0.99728" height="308.11204"/><rect class="d" x="86.20204" y="91.992" width="0.99728" height="308.11204"/><rect class="d" x="84.06625" y="91.992" width="0.99728" height="308.11204"/><rect class="d" x="81.93144" y="91.992" width="0.99728" height="308.11204"/><rect class="d" x="79.79566" y="91.992" width="0.99728" height="308.11204"/><rect class="d" x="77.66085" y="91.992" width="0.99728" height="308.11204"/><rect class="d" x="75.52506" y="91.992" width="0.99728" height="308.11204"/><rect class="d" x="73.39025" y="91.992" width="0.99728" height="308.11204"/><rect class="d" x="71.25544" y="91.992" width="0.99728" height="308.11204"/><rect class="d" x="69.11966" y="91.992" width="0.99728" height="308.11204"/><rect class="d" x="66.98484" y="91.992" width="0.99728" height="308.11204"/><rect class="d" x="64.84906" y="91.992" width="0.99728" height="308.11204"/><rect class="d" x="62.71425" y="91.992" width="0.99728" height="308.11204"/><rect class="d" x="60.57846" y="91.992" width="0.99728" height="308.11204"/><rect class="d" x="58.44365" y="91.992" width="0.99728" height="308.11204"/><rect class="d" x="56.30836" y="91.992" width="0.99728" height="308.11204"/><rect class="d" x="54.17306" y="91.992" width="0.99728" height="308.11204"/><rect class="d" x="52.03825" y="91.992" width="0.99728" height="308.11204"/><rect class="d" x="49.90246" y="91.992" width="0.99728" height="308.11204"/><rect class="d" x="47.76765" y="91.992" width="0.99728" height="308.11204"/><rect class="d" x="45.63187" y="91.992" width="0.99728" height="308.11204"/><rect class="d" x="43.49705" y="91.992" width="0.99728" height="308.11204"/><rect class="d" x="41.36127" y="91.992" width="0.99728" height="308.11204"/><rect class="d" x="39.22646" y="91.992" width="0.99728" height="308.11204"/><rect class="d" x="37.09165" y="91.992" width="0.99728" height="308.11204"/><rect class="d" x="34.95586" y="91.992" width="0.99728" height="308.11204"/><rect class="d" x="32.82105" y="91.992" width="0.99728" height="308.11204"/><rect class="d" x="30.68527" y="91.992" width="0.99728" height="308.11204"/><rect class="d" x="28.55046" y="91.992" width="0.99728" height="308.11204"/><rect class="d" x="26.41467" y="91.992" width="0.99728" height="308.11204"/><rect class="d" x="24.27986" y="91.992" width="0.99728" height="308.11204"/><rect class="d" x="22.14408" y="91.992" width="0.99728" height="308.11204"/><rect class="d" x="20.00926" y="91.992" width="0.99728" height="308.11204"/><rect class="d" x="17.87445" y="91.992" width="0.99728" height="308.11204"/><rect class="d" x="15.73867" y="91.992" width="0.99728" height="308.11204"/><rect class="d" x="13.60386" y="91.992" width="0.99728" height="308.11204"/><rect class="d" x="11.46807" y="91.992" width="0.99728" height="308.11204"/><rect class="d" x="9.33326" y="91.992" width="0.99728" height="308.11204"/><rect class="d" x="7.19748" y="91.992" width="0.99728" height="308.11204"/><rect class="d" x="5.06267" y="91.992" width="0.99728" height="308.11204"/><rect class="d" x="2.92688" y="91.992" width="0.99728" height="308.11204"/><rect class="d" x="0.79207" y="91.992" width="0.99728" height="308.11204"/><rect class="d" x="-1.34274" y="91.992" width="0.99728" height="308.11204"/><rect class="d" x="-3.47852" y="91.992" width="0.99728" height="308.11204"/><rect class="d" x="-5.61334" y="91.992" width="0.99728" height="308.11204"/><rect class="d" x="-7.74912" y="91.992" width="0.99728" height="308.11204"/><rect class="d" x="-9.88393" y="91.992" width="0.99728" height="308.11204"/><rect class="d" x="-12.01972" y="91.992" width="0.99728" height="308.11204"/><rect class="d" x="-14.15453" y="91.992" width="0.99728" height="308.11204"/><rect class="d" x="-16.28983" y="91.992" width="0.99728" height="308.11204"/><rect class="d" x="-18.42512" y="91.992" width="0.99728" height="308.11204"/><rect class="d" x="-20.55993" y="91.992" width="0.99728" height="308.11204"/><rect class="d" x="-22.69572" y="91.992" width="0.99728" height="308.11204"/><rect class="d" x="-24.83053" y="91.992" width="0.99728" height="308.11204"/><rect class="d" x="-26.96631" y="91.992" width="0.99728" height="308.11204"/><rect class="d" x="-29.10113" y="91.992" width="0.99728" height="308.11204"/><rect class="d" x="-31.23691" y="91.992" width="0.99728" height="308.11204"/><rect class="d" x="-33.37172" y="91.992" width="0.99728" height="308.11204"/><rect class="d" x="-35.50653" y="91.992" width="0.99728" height="308.11204"/><rect class="d" x="-37.64232" y="91.992" width="0.99728" height="308.11204"/><rect class="d" x="-39.77713" y="91.992" width="0.99728" height="308.11204"/><rect class="d" x="-41.91291" y="91.992" width="0.99728" height="308.11204"/><rect class="d" x="-44.04772" y="91.992" width="0.99728" height="308.11204"/><rect class="d" x="-46.18351" y="91.992" width="0.99728" height="308.11204"/></g><g class="g"><polygon class="d" points="-132.183 123.095 -132.888 122.39 84.981 -95.478 85.686 -94.773 -132.183 123.095"/><polygon class="d" points="-130.672 124.605 -131.377 123.9 86.49 -93.968 87.195 -93.263 -130.672 124.605"/><polygon class="d" points="-129.163 126.115 -129.868 125.41 88 -92.458 88.705 -91.753 -129.163 126.115"/><polygon class="d" points="-127.653 127.624 -128.358 126.919 89.51 -90.948 90.216 -90.243 -127.653 127.624"/><polygon class="d" points="-126.143 129.135 -126.849 128.43 91.02 -89.439 91.725 -88.734 -126.143 129.135"/><polygon class="d" points="-124.633 130.645 -125.338 129.939 92.53 -87.929 93.235 -87.224 -124.633 130.645"/><polygon class="d" points="-123.123 132.154 -123.828 131.449 94.039 -86.419 94.744 -85.713 -123.123 132.154"/><polygon class="d" points="-121.614 133.665 -122.319 132.96 95.55 -84.909 96.255 -84.204 -121.614 133.665"/><polygon class="d" points="-120.103 135.174 -120.808 134.469 97.059 -83.399 97.764 -82.694 -120.103 135.174"/><polygon class="d" points="-118.594 136.684 -119.299 135.979 98.569 -81.889 99.274 -81.184 -118.594 136.684"/><polygon class="d" points="-117.084 138.193 -117.789 137.488 100.079 -80.379 100.784 -79.674 -117.084 138.193"/><polygon class="d" points="-115.575 139.704 -116.28 138.999 101.589 -78.87 102.294 -78.165 -115.575 139.704"/><polygon class="d" points="-114.064 141.213 -114.769 140.508 103.098 -77.36 103.804 -76.655 -114.064 141.213"/><polygon class="d" points="-112.555 142.723 -113.26 142.018 104.608 -75.85 105.313 -75.145 -112.555 142.723"/><polygon class="d" points="-111.045 144.234 -111.75 143.528 106.118 -74.34 106.824 -73.635 -111.045 144.234"/><polygon class="d" points="-109.534 145.743 -110.24 145.038 107.628 -72.831 108.333 -72.125 -109.534 145.743"/><polygon class="d" points="-108.025 147.253 -108.73 146.548 109.138 -71.32 109.843 -70.615 -108.025 147.253"/><polygon class="d" points="-106.515 148.762 -107.22 148.057 110.648 -69.811 111.353 -69.105 -106.515 148.762"/><polygon class="d" points="-105.006 150.273 -105.711 149.568 112.158 -68.301 112.863 -67.596 -105.006 150.273"/><polygon class="d" points="-103.495 151.782 -104.2 151.077 113.667 -66.791 114.372 -66.086 -103.495 151.782"/><polygon class="d" points="-101.986 153.292 -102.691 152.587 115.177 -65.281 115.882 -64.576 -101.986 153.292"/><polygon class="d" points="-100.476 154.802 -101.181 154.097 116.687 -63.771 117.392 -63.066 -100.476 154.802"/><polygon class="d" points="-98.966 156.312 -99.671 155.607 118.197 -62.262 118.902 -61.557 -98.966 156.312"/><polygon class="d" points="-97.456 157.822 -98.161 157.116 119.706 -60.751 120.412 -60.046 -97.456 157.822"/><polygon class="d" points="-95.946 159.331 -96.652 158.626 121.217 -59.242 121.922 -58.537 -95.946 159.331"/><polygon class="d" points="-94.437 160.842 -95.142 160.136 122.727 -57.732 123.432 -57.027 -94.437 160.842"/><polygon class="d" points="-92.926 162.351 -93.631 161.646 124.236 -56.222 124.941 -55.516 -92.926 162.351"/><polygon class="d" points="-91.417 163.861 -92.122 163.156 125.747 -54.712 126.452 -54.007 -91.417 163.861"/><polygon class="d" points="-89.907 165.371 -90.612 164.666 127.256 -53.202 127.961 -52.497 -89.907 165.371"/><polygon class="d" points="-88.397 166.881 -89.102 166.176 128.766 -51.693 129.471 -50.988 -88.397 166.881"/><polygon class="d" points="-86.887 168.39 -87.592 167.685 130.275 -50.182 130.98 -49.477 -86.887 168.39"/><polygon class="d" points="-85.378 169.9 -86.083 169.195 131.786 -48.673 132.491 -47.968 -85.378 169.9"/><polygon class="d" points="-83.868 171.41 -84.573 170.705 133.295 -47.163 134.001 -46.458 -83.868 171.41"/><polygon class="d" points="-82.357 172.92 -83.063 172.215 134.805 -45.653 135.51 -44.948 -82.357 172.92"/><polygon class="d" points="-80.848 174.43 -81.553 173.724 136.316 -44.143 137.021 -43.438 -80.848 174.43"/><polygon class="d" points="-79.338 175.94 -80.043 175.235 137.825 -42.634 138.53 -41.928 -79.338 175.94"/><polygon class="d" points="-77.828 177.45 -78.533 176.745 139.335 -41.124 140.04 -40.419 -77.828 177.45"/><polygon class="d" points="-76.318 178.959 -77.023 178.254 140.844 -39.613 141.549 -38.908 -76.318 178.959"/><polygon class="d" points="-74.809 180.47 -75.514 179.765 142.355 -38.104 143.06 -37.399 -74.809 180.47"/><polygon class="d" points="-73.298 181.979 -74.003 181.274 143.864 -36.594 144.569 -35.889 -73.298 181.979"/><polygon class="d" points="-71.789 183.489 -72.494 182.784 145.374 -35.084 146.079 -34.379 -71.789 183.489"/><polygon class="d" points="-70.279 184.998 -70.984 184.293 146.884 -33.574 147.59 -32.869 -70.279 184.998"/><polygon class="d" points="-68.769 186.509 -69.475 185.804 148.394 -32.065 149.099 -31.36 -68.769 186.509"/><polygon class="d" points="-67.259 188.019 -67.964 187.313 149.904 -30.555 150.609 -29.85 -67.259 188.019"/><polygon class="d" points="-65.749 189.528 -66.454 188.823 151.413 -29.045 152.118 -28.339 -65.749 189.528"/><polygon class="d" points="-64.24 191.039 -64.945 190.334 152.924 -27.535 153.629 -26.83 -64.24 191.039"/><polygon class="d" points="-62.729 192.548 -63.434 191.843 154.433 -26.025 155.138 -25.32 -62.729 192.548"/><polygon class="d" points="-61.22 194.058 -61.925 193.353 155.943 -24.515 156.648 -23.81 -61.22 194.058"/><polygon class="d" points="-59.71 195.567 -60.415 194.862 157.453 -23.005 158.158 -22.3 -59.71 195.567"/><polygon class="d" points="-58.201 197.078 -58.906 196.373 158.963 -21.496 159.668 -20.791 -58.201 197.078"/><polygon class="d" points="-56.69 198.587 -57.395 197.882 160.472 -19.986 161.178 -19.281 -56.69 198.587"/><polygon class="d" points="-55.18 200.097 -55.886 199.392 161.982 -18.476 162.687 -17.771 -55.18 200.097"/><polygon class="d" points="-53.671 201.608 -54.376 200.902 163.493 -16.966 164.198 -16.261 -53.671 201.608"/><polygon class="d" points="-52.16 203.117 -52.866 202.412 165.002 -15.457 165.707 -14.751 -52.16 203.117"/><polygon class="d" points="-50.651 204.627 -51.356 203.922 166.512 -13.946 167.217 -13.241 -50.651 204.627"/><polygon class="d" points="-49.141 206.136 -49.846 205.431 168.022 -12.436 168.727 -11.731 -49.141 206.136"/><polygon class="d" points="-47.632 207.647 -48.337 206.942 169.532 -10.927 170.237 -10.222 -47.632 207.647"/><polygon class="d" points="-46.121 209.156 -46.826 208.451 171.041 -9.416 171.746 -8.711 -46.121 209.156"/><polygon class="d" points="-44.612 210.666 -45.317 209.961 172.551 -7.907 173.256 -7.202 -44.612 210.666"/><polygon class="d" points="-43.102 212.176 -43.807 211.471 174.061 -6.397 174.767 -5.692 -43.102 212.176"/><polygon class="d" points="-41.592 213.686 -42.297 212.981 175.571 -4.888 176.276 -4.183 -41.592 213.686"/><polygon class="d" points="-40.082 215.196 -40.787 214.49 177.081 -3.377 177.786 -2.672 -40.082 215.196"/><polygon class="d" points="-38.572 216.705 -39.278 216 178.591 -1.868 179.296 -1.163 -38.572 216.705"/><polygon class="d" points="-37.063 218.216 -37.768 217.511 180.101 -0.358 180.806 0.347 -37.063 218.216"/><polygon class="d" points="-35.552 219.725 -36.257 219.02 181.61 1.152 182.315 1.858 -35.552 219.725"/><polygon class="d" points="-34.043 221.235 -34.748 220.53 183.121 2.662 183.826 3.367 -34.043 221.235"/><polygon class="d" points="-32.533 222.745 -33.238 222.04 184.63 4.172 185.335 4.877 -32.533 222.745"/><polygon class="d" points="-31.023 224.255 -31.728 223.55 186.14 5.681 186.845 6.386 -31.023 224.255"/><polygon class="d" points="-29.513 225.764 -30.218 225.059 187.649 7.192 188.354 7.897 -29.513 225.764"/><polygon class="d" points="-28.004 227.275 -28.709 226.57 189.16 8.701 189.865 9.406 -28.004 227.275"/><polygon class="d" points="-26.493 228.784 -27.198 228.079 190.669 10.211 191.375 10.916 -26.493 228.784"/><polygon class="d" points="-24.983 230.294 -25.689 229.589 192.179 11.721 192.884 12.426 -24.983 230.294"/><polygon class="d" points="-23.474 231.804 -24.179 231.099 193.69 13.231 194.395 13.936 -23.474 231.804"/><polygon class="d" points="-21.964 233.314 -22.669 232.609 195.199 14.74 195.904 15.446 -21.964 233.314"/><polygon class="d" points="-20.454 234.824 -21.159 234.119 196.709 16.25 197.414 16.955 -20.454 234.824"/><polygon class="d" points="-18.944 236.333 -19.649 235.628 198.218 17.761 198.923 18.466 -18.944 236.333"/><polygon class="d" points="-17.435 237.844 -18.14 237.139 199.729 19.27 200.434 19.975 -17.435 237.844"/><polygon class="d" points="-15.924 239.353 -16.629 238.648 201.238 20.78 201.943 21.485 -15.924 239.353"/><polygon class="d" points="-14.415 240.863 -15.12 240.158 202.748 22.29 203.453 22.995 -14.415 240.863"/><polygon class="d" points="-12.905 242.372 -13.61 241.667 204.258 23.8 204.964 24.505 -12.905 242.372"/><polygon class="d" points="-11.395 243.883 -12.101 243.178 205.768 25.309 206.473 26.014 -11.395 243.883"/><polygon class="d" points="-9.885 245.393 -10.59 244.687 207.278 26.819 207.983 27.524 -9.885 245.393"/><polygon class="d" points="-8.375 246.902 -9.08 246.197 208.787 28.329 209.492 29.035 -8.375 246.902"/><polygon class="d" points="-6.866 248.413 -7.571 247.708 210.298 29.839 211.003 30.544 -6.866 248.413"/><polygon class="d" points="-5.355 249.922 -6.06 249.217 211.807 31.349 212.512 32.054 -5.355 249.922"/><polygon class="d" points="-3.846 251.432 -4.551 250.727 213.317 32.859 214.022 33.564 -3.846 251.432"/><polygon class="d" points="-2.336 252.941 -3.041 252.236 214.827 34.369 215.532 35.074 -2.336 252.941"/><polygon class="d" points="-0.827 254.452 -1.532 253.747 216.337 35.878 217.042 36.583 -0.827 254.452"/><polygon class="d" points="0.684 255.961 -0.021 255.256 217.846 37.389 218.552 38.094 0.684 255.961"/><polygon class="d" points="2.194 257.471 1.488 256.766 219.356 38.898 220.061 39.603 2.194 257.471"/><polygon class="d" points="3.703 258.982 2.998 258.276 220.867 40.408 221.572 41.113 3.703 258.982"/><polygon class="d" points="5.214 260.491 4.509 259.786 222.376 41.917 223.081 42.623 5.214 260.491"/><polygon class="d" points="6.723 262.001 6.018 261.296 223.886 43.428 224.591 44.133 6.723 262.001"/><polygon class="d" points="8.233 263.51 7.528 262.805 225.396 44.938 226.101 45.643 8.233 263.51"/><polygon class="d" points="9.742 265.021 9.037 264.316 226.906 46.447 227.611 47.152 9.742 265.021"/><polygon class="d" points="11.253 266.53 10.548 265.825 228.415 47.958 229.12 48.663 11.253 266.53"/><polygon class="d" points="12.762 268.04 12.057 267.335 229.926 49.467 230.631 50.172 12.762 268.04"/><polygon class="d" points="14.272 269.55 13.567 268.845 231.435 50.977 232.141 51.682 14.272 269.55"/><polygon class="d" points="15.782 271.06 15.077 270.355 232.945 52.486 233.65 53.191 15.782 271.06"/><polygon class="d" points="17.292 272.57 16.587 271.864 234.455 53.997 235.16 54.702 17.292 272.57"/><polygon class="d" points="18.802 274.08 18.097 273.375 235.965 55.506 236.67 56.212 18.802 274.08"/><polygon class="d" points="20.311 275.59 19.606 274.885 237.475 57.016 238.18 57.721 20.311 275.59"/><polygon class="d" points="21.822 277.099 21.117 276.394 238.984 58.527 239.689 59.232 21.822 277.099"/><polygon class="d" points="23.331 278.609 22.626 277.904 240.495 60.036 241.2 60.741 23.331 278.609"/><polygon class="d" points="24.841 280.119 24.136 279.414 242.004 61.546 242.709 62.251 24.841 280.119"/><polygon class="d" points="26.351 281.629 25.646 280.924 243.514 63.055 244.219 63.76 26.351 281.629"/><polygon class="d" points="27.861 283.138 27.156 282.433 245.023 64.566 245.729 65.271 27.861 283.138"/><polygon class="d" points="29.37 284.649 28.665 283.944 246.534 66.075 247.239 66.78 29.37 284.649"/><polygon class="d" points="30.881 286.159 30.176 285.453 248.043 67.585 248.749 68.29 30.881 286.159"/><polygon class="d" points="32.391 287.668 31.685 286.963 249.553 69.095 250.258 69.8 32.391 287.668"/><polygon class="d" points="33.9 289.178 33.195 288.473 251.064 70.605 251.769 71.31 33.9 289.178"/><polygon class="d" points="35.41 290.688 34.705 289.983 252.573 72.114 253.278 72.82 35.41 290.688"/><polygon class="d" points="36.92 292.198 36.215 291.493 254.083 73.624 254.788 74.329 36.92 292.198"/><polygon class="d" points="38.43 293.707 37.725 293.002 255.592 75.135 256.297 75.84 38.43 293.707"/></g><g class="h"><rect class="d" x="-23.00153" y="-22.33141" width="308.11204" height="0.99728"/><rect class="d" x="-23.00153" y="-20.1966" width="308.11204" height="0.99728"/><rect class="d" x="-23.00153" y="-18.0613" width="308.11204" height="0.99728"/><rect class="d" x="-23.00153" y="-15.926" width="308.11204" height="0.99728"/><rect class="d" x="-23.00153" y="-13.79119" width="308.11204" height="0.99728"/><rect class="d" x="-23.00153" y="-11.65541" width="308.11204" height="0.99728"/><rect class="d" x="-23.00153" y="-9.5206" width="308.11204" height="0.99728"/><rect class="d" x="-23.00153" y="-7.38481" width="308.11204" height="0.99728"/><rect class="d" x="-23.00153" y="-5.25" width="308.11204" height="0.99728"/><rect class="d" x="-23.00153" y="-3.11422" width="308.11204" height="0.99728"/><rect class="d" x="-23.00153" y="-0.97941" width="308.11204" height="0.99728"/><rect class="d" x="-23.00153" y="1.15541" width="308.11204" height="0.99728"/><rect class="d" x="-23.00153" y="3.29119" width="308.11204" height="0.99728"/><rect class="d" x="-23.00153" y="5.426" width="308.11204" height="0.99728"/><rect class="d" x="-23.00153" y="7.56179" width="308.11204" height="0.99728"/><rect class="d" x="-23.00153" y="9.6966" width="308.11204" height="0.99728"/><rect class="d" x="-23.00153" y="11.83238" width="308.11204" height="0.99728"/><rect class="d" x="-23.00153" y="13.96719" width="308.11204" height="0.99728"/><rect class="d" x="-23.00153" y="16.10298" width="308.11204" height="0.99728"/><rect class="d" x="-23.00153" y="18.23779" width="308.11204" height="0.99728"/><rect class="d" x="-23.00153" y="20.3726" width="308.11204" height="0.99728"/><rect class="d" x="-23.00153" y="22.50838" width="308.11204" height="0.99728"/><rect class="d" x="-23.00153" y="24.64319" width="308.11204" height="0.99728"/><rect class="d" x="-23.00153" y="26.77898" width="308.11204" height="0.99728"/><rect class="d" x="-23.00153" y="28.91379" width="308.11204" height="0.99728"/><rect class="d" x="-23.00153" y="31.04958" width="308.11204" height="0.99728"/><rect class="d" x="-23.00153" y="33.18439" width="308.11204" height="0.99728"/><rect class="d" x="-23.00153" y="35.32017" width="308.11204" height="0.99728"/><rect class="d" x="-23.00153" y="37.45498" width="308.11204" height="0.99728"/><rect class="d" x="-23.00153" y="39.58979" width="308.11204" height="0.99728"/><rect class="d" x="-23.00153" y="41.72558" width="308.11204" height="0.99728"/><rect class="d" x="-23.00153" y="43.86039" width="308.11204" height="0.99728"/><rect class="d" x="-23.00153" y="45.99617" width="308.11204" height="0.99728"/><rect class="d" x="-23.00153" y="48.13098" width="308.11204" height="0.99728"/><rect class="d" x="-23.00153" y="50.26677" width="308.11204" height="0.99728"/><rect class="d" x="-23.00153" y="52.40158" width="308.11204" height="0.99728"/><rect class="d" x="-23.00153" y="54.53688" width="308.11204" height="0.99728"/><rect class="d" x="-23.00153" y="56.67218" width="308.11204" height="0.99728"/><rect class="d" x="-23.00153" y="58.80699" width="308.11204" height="0.99728"/><rect class="d" x="-23.00153" y="60.94277" width="308.11204" height="0.99728"/><rect class="d" x="-23.00153" y="63.07758" width="308.11204" height="0.99728"/><rect class="d" x="-23.00153" y="65.21337" width="308.11204" height="0.99728"/><rect class="d" x="-23.00153" y="67.34818" width="308.11204" height="0.99728"/><rect class="d" x="-23.00153" y="69.48396" width="308.11204" height="0.99728"/><rect class="d" x="-23.00153" y="71.61877" width="308.11204" height="0.99728"/><rect class="d" x="-23.00153" y="73.75359" width="308.11204" height="0.99728"/><rect class="d" x="-23.00153" y="75.88937" width="308.11204" height="0.99728"/><rect class="d" x="-23.00153" y="78.02418" width="308.11204" height="0.99728"/><rect class="d" x="-23.00153" y="80.15997" width="308.11204" height="0.99728"/><rect class="d" x="-23.00153" y="82.29478" width="308.11204" height="0.99728"/><rect class="d" x="-23.00153" y="84.43056" width="308.11204" height="0.99728"/><rect class="d" x="-23.00153" y="86.56537" width="308.11204" height="0.99728"/><rect class="d" x="-23.00153" y="88.70116" width="308.11204" height="0.99728"/><rect class="d" x="-23.00153" y="90.83597" width="308.11204" height="0.99728"/><rect class="d" x="-23.00153" y="92.97078" width="308.11204" height="0.99728"/><rect class="d" x="-23.00153" y="95.10656" width="308.11204" height="0.99728"/><rect class="d" x="-23.00153" y="97.24138" width="308.11204" height="0.99728"/><rect class="d" x="-23.00153" y="99.37716" width="308.11204" height="0.99728"/><rect class="d" x="-23.00153" y="101.51197" width="308.11204" height="0.99728"/><rect class="d" x="-23.00153" y="103.64776" width="308.11204" height="0.99728"/><rect class="d" x="-23.00153" y="105.78257" width="308.11204" height="0.99728"/><rect class="d" x="-23.00153" y="107.91835" width="308.11204" height="0.99728"/><rect class="d" x="-23.00153" y="110.05316" width="308.11204" height="0.99728"/><rect class="d" x="-23.00153" y="112.18797" width="308.11204" height="0.99728"/><rect class="d" x="-23.00153" y="114.32376" width="308.11204" height="0.99728"/><rect class="d" x="-23.00153" y="116.45857" width="308.11204" height="0.99728"/><rect class="d" x="-23.00153" y="118.59435" width="308.11204" height="0.99728"/><rect class="d" x="-23.00153" y="120.72916" width="308.11204" height="0.99728"/><rect class="d" x="-23.00153" y="122.86495" width="308.11204" height="0.99728"/><rect class="d" x="-23.00153" y="124.99976" width="308.11204" height="0.99728"/><rect class="d" x="-23.00153" y="127.13506" width="308.11204" height="0.99728"/><rect class="d" x="-23.00153" y="129.27036" width="308.11204" height="0.99728"/><rect class="d" x="-23.00153" y="131.40517" width="308.11204" height="0.99728"/><rect class="d" x="-23.00153" y="133.54095" width="308.11204" height="0.99728"/><rect class="d" x="-23.00153" y="135.67576" width="308.11204" height="0.99728"/><rect class="d" x="-23.00153" y="137.81155" width="308.11204" height="0.99728"/><rect class="d" x="-23.00153" y="139.94636" width="308.11204" height="0.99728"/><rect class="d" x="-23.00153" y="142.08214" width="308.11204" height="0.99728"/><rect class="d" x="-23.00153" y="144.21695" width="308.11204" height="0.99728"/><rect class="d" x="-23.00153" y="146.35177" width="308.11204" height="0.99728"/><rect class="d" x="-23.00153" y="148.48755" width="308.11204" height="0.99728"/><rect class="d" x="-23.00153" y="150.62236" width="308.11204" height="0.99728"/><rect class="d" x="-23.00153" y="152.75815" width="308.11204" height="0.99728"/><rect class="d" x="-23.00153" y="154.89296" width="308.11204" height="0.99728"/><rect class="d" x="-23.00153" y="157.02874" width="308.11204" height="0.99728"/><rect class="d" x="-23.00153" y="159.16355" width="308.11204" height="0.99728"/><rect class="d" x="-23.00153" y="161.29934" width="308.11204" height="0.99728"/><rect class="d" x="-23.00153" y="163.43415" width="308.11204" height="0.99728"/><rect class="d" x="-23.00153" y="165.56896" width="308.11204" height="0.99728"/><rect class="d" x="-23.00153" y="167.70474" width="308.11204" height="0.99728"/><rect class="d" x="-23.00153" y="169.83956" width="308.11204" height="0.99728"/><rect class="d" x="-23.00153" y="171.97534" width="308.11204" height="0.99728"/><rect class="d" x="-23.00153" y="174.11015" width="308.11204" height="0.99728"/><rect class="d" x="-23.00153" y="176.24594" width="308.11204" height="0.99728"/><rect class="d" x="-23.00153" y="178.38075" width="308.11204" height="0.99728"/><rect class="d" x="-23.00153" y="180.51653" width="308.11204" height="0.99728"/><rect class="d" x="-23.00153" y="182.65134" width="308.11204" height="0.99728"/><rect class="d" x="-23.00153" y="184.78615" width="308.11204" height="0.99728"/><rect class="d" x="-23.00153" y="186.92194" width="308.11204" height="0.99728"/><rect class="d" x="-23.00153" y="189.05675" width="308.11204" height="0.99728"/><rect class="d" x="-23.00153" y="191.19253" width="308.11204" height="0.99728"/><rect class="d" x="-23.00153" y="193.32735" width="308.11204" height="0.99728"/><rect class="d" x="-23.00153" y="195.46313" width="308.11204" height="0.99728"/><rect class="d" x="-23.00153" y="197.59794" width="308.11204" height="0.99728"/><rect class="d" x="-23.00153" y="199.73324" width="308.11204" height="0.99728"/><rect class="d" x="-23.00153" y="201.86854" width="308.11204" height="0.99728"/><rect class="d" x="-23.00153" y="204.00335" width="308.11204" height="0.99728"/><rect class="d" x="-23.00153" y="206.13913" width="308.11204" height="0.99728"/><rect class="d" x="-23.00153" y="208.27394" width="308.11204" height="0.99728"/><rect class="d" x="-23.00153" y="210.40973" width="308.11204" height="0.99728"/><rect class="d" x="-23.00153" y="212.54454" width="308.11204" height="0.99728"/><rect class="d" x="-23.00153" y="214.68032" width="308.11204" height="0.99728"/><rect class="d" x="-23.00153" y="216.81513" width="308.11204" height="0.99728"/><rect class="d" x="-23.00153" y="218.94995" width="308.11204" height="0.99728"/></g><g class="i"><rect class="d" x="129.58876" y="-49.67394" width="0.99728" height="308.11204"/><rect class="d" x="131.72454" y="-49.67394" width="0.99728" height="308.11204"/><rect class="d" x="133.85936" y="-49.67394" width="0.99728" height="308.11204"/><rect class="d" x="135.99514" y="-49.67394" width="0.99728" height="308.11204"/><rect class="d" x="138.12995" y="-49.67394" width="0.99728" height="308.11204"/><rect class="d" x="140.26525" y="-49.67394" width="0.99728" height="308.11204"/><rect class="d" x="142.40055" y="-49.67394" width="0.99728" height="308.11204"/><rect class="d" x="144.53536" y="-49.67394" width="0.99728" height="308.11204"/><rect class="d" x="146.67114" y="-49.67394" width="0.99728" height="308.11204"/><rect class="d" x="148.80595" y="-49.67394" width="0.99728" height="308.11204"/><rect class="d" x="150.94174" y="-49.67394" width="0.99728" height="308.11204"/><rect class="d" x="153.07655" y="-49.67394" width="0.99728" height="308.11204"/><rect class="d" x="155.21233" y="-49.67394" width="0.99728" height="308.11204"/><rect class="d" x="157.34714" y="-49.67394" width="0.99728" height="308.11204"/><rect class="d" x="159.48196" y="-49.67394" width="0.99728" height="308.11204"/><rect class="d" x="161.61774" y="-49.67394" width="0.99728" height="308.11204"/><rect class="d" x="163.75255" y="-49.67394" width="0.99728" height="308.11204"/><rect class="d" x="165.88834" y="-49.67394" width="0.99728" height="308.11204"/><rect class="d" x="168.02315" y="-49.67394" width="0.99728" height="308.11204"/><rect class="d" x="170.15893" y="-49.67394" width="0.99728" height="308.11204"/><rect class="d" x="172.29374" y="-49.67394" width="0.99728" height="308.11204"/><rect class="d" x="174.42953" y="-49.67394" width="0.99728" height="308.11204"/><rect class="d" x="176.56434" y="-49.67394" width="0.99728" height="308.11204"/><rect class="d" x="178.69915" y="-49.67394" width="0.99728" height="308.11204"/><rect class="d" x="180.83493" y="-49.67394" width="0.99728" height="308.11204"/><rect class="d" x="182.96975" y="-49.67394" width="0.99728" height="308.11204"/><rect class="d" x="185.10553" y="-49.67394" width="0.99728" height="308.11204"/><rect class="d" x="187.24034" y="-49.67394" width="0.99728" height="308.11204"/><rect class="d" x="189.37613" y="-49.67394" width="0.99728" height="308.11204"/><rect class="d" x="191.51094" y="-49.67394" width="0.99728" height="308.11204"/><rect class="d" x="193.64623" y="-49.67394" width="0.99728" height="308.11204"/><rect class="d" x="195.78153" y="-49.67394" width="0.99728" height="308.11204"/><rect class="d" x="197.91634" y="-49.67394" width="0.99728" height="308.11204"/><rect class="d" x="200.05213" y="-49.67394" width="0.99728" height="308.11204"/><rect class="d" x="202.18694" y="-49.67394" width="0.99728" height="308.11204"/><rect class="d" x="204.32272" y="-49.67394" width="0.99728" height="308.11204"/><rect class="d" x="206.45754" y="-49.67394" width="0.99728" height="308.11204"/><rect class="d" x="208.59332" y="-49.67394" width="0.99728" height="308.11204"/><rect class="d" x="210.72813" y="-49.67394" width="0.99728" height="308.11204"/><rect class="d" x="212.86343" y="-49.67394" width="0.99728" height="308.11204"/><rect class="d" x="214.99873" y="-49.67394" width="0.99728" height="308.11204"/><rect class="d" x="217.13354" y="-49.67394" width="0.99728" height="308.11204"/><rect class="d" x="219.26932" y="-49.67394" width="0.99728" height="308.11204"/><rect class="d" x="221.40413" y="-49.67394" width="0.99728" height="308.11204"/><rect class="d" x="223.53992" y="-49.67394" width="0.99728" height="308.11204"/><rect class="d" x="225.67473" y="-49.67394" width="0.99728" height="308.11204"/><rect class="d" x="227.81051" y="-49.67394" width="0.99728" height="308.11204"/><rect class="d" x="229.94532" y="-49.67394" width="0.99728" height="308.11204"/><rect class="d" x="232.08014" y="-49.67394" width="0.99728" height="308.11204"/><rect class="d" x="234.21592" y="-49.67394" width="0.99728" height="308.11204"/><rect class="d" x="236.35073" y="-49.67394" width="0.99728" height="308.11204"/><rect class="d" x="238.48652" y="-49.67394" width="0.99728" height="308.11204"/><rect class="d" x="240.62133" y="-49.67394" width="0.99728" height="308.11204"/><rect class="d" x="242.75711" y="-49.67394" width="0.99728" height="308.11204"/><rect class="d" x="244.89192" y="-49.67394" width="0.99728" height="308.11204"/><rect class="d" x="247.02771" y="-49.67394" width="0.99728" height="308.11204"/><rect class="d" x="249.16252" y="-49.67394" width="0.99728" height="308.11204"/><rect class="d" x="251.29733" y="-49.67394" width="0.99728" height="308.11204"/><rect class="d" x="253.43311" y="-49.67394" width="0.99728" height="308.11204"/><rect class="d" x="255.56793" y="-49.67394" width="0.99728" height="308.11204"/><rect class="d" x="257.70371" y="-49.67394" width="0.99728" height="308.11204"/><rect class="d" x="259.83852" y="-49.67394" width="0.99728" height="308.11204"/><rect class="d" x="261.97431" y="-49.67394" width="0.99728" height="308.11204"/><rect class="d" x="264.10912" y="-49.67394" width="0.99728" height="308.11204"/><rect class="d" x="266.24442" y="-49.67394" width="0.99728" height="308.11204"/><rect class="d" x="268.37971" y="-49.67394" width="0.99728" height="308.11204"/><rect class="d" x="270.51452" y="-49.67394" width="0.99728" height="308.11204"/><rect class="d" x="272.65031" y="-49.67394" width="0.99728" height="308.11204"/><rect class="d" x="274.78512" y="-49.67394" width="0.99728" height="308.11204"/><rect class="d" x="276.9209" y="-49.67394" width="0.99728" height="308.11204"/><rect class="d" x="279.05572" y="-49.67394" width="0.99728" height="308.11204"/><rect class="d" x="281.1915" y="-49.67394" width="0.99728" height="308.11204"/><rect class="d" x="283.32631" y="-49.67394" width="0.99728" height="308.11204"/><rect class="d" x="285.46161" y="-49.67394" width="0.99728" height="308.11204"/><rect class="d" x="287.59691" y="-49.67394" width="0.99728" height="308.11204"/><rect class="d" x="289.73172" y="-49.67394" width="0.99728" height="308.11204"/><rect class="d" x="291.8675" y="-49.67394" width="0.99728" height="308.11204"/><rect class="d" x="294.00231" y="-49.67394" width="0.99728" height="308.11204"/><rect class="d" x="296.1381" y="-49.67394" width="0.99728" height="308.11204"/><rect class="d" x="298.27291" y="-49.67394" width="0.99728" height="308.11204"/><rect class="d" x="300.40869" y="-49.67394" width="0.99728" height="308.11204"/><rect class="d" x="302.54351" y="-49.67394" width="0.99728" height="308.11204"/><rect class="d" x="304.67832" y="-49.67394" width="0.99728" height="308.11204"/><rect class="d" x="306.8141" y="-49.67394" width="0.99728" height="308.11204"/><rect class="d" x="308.94891" y="-49.67394" width="0.99728" height="308.11204"/><rect class="d" x="311.0847" y="-49.67394" width="0.99728" height="308.11204"/><rect class="d" x="313.21951" y="-49.67394" width="0.99728" height="308.11204"/><rect class="d" x="315.35529" y="-49.67394" width="0.99728" height="308.11204"/><rect class="d" x="317.4901" y="-49.67394" width="0.99728" height="308.11204"/><rect class="d" x="319.62589" y="-49.67394" width="0.99728" height="308.11204"/><rect class="d" x="321.7607" y="-49.67394" width="0.99728" height="308.11204"/><rect class="d" x="323.89551" y="-49.67394" width="0.99728" height="308.11204"/><rect class="d" x="326.03129" y="-49.67394" width="0.99728" height="308.11204"/><rect class="d" x="328.16611" y="-49.67394" width="0.99728" height="308.11204"/><rect class="d" x="330.30189" y="-49.67394" width="0.99728" height="308.11204"/><rect class="d" x="332.4367" y="-49.67394" width="0.99728" height="308.11204"/><rect class="d" x="334.57249" y="-49.67394" width="0.99728" height="308.11204"/><rect class="d" x="336.7073" y="-49.67394" width="0.99728" height="308.11204"/><rect class="d" x="338.8426" y="-49.67394" width="0.99728" height="308.11204"/><rect class="d" x="340.97789" y="-49.67394" width="0.99728" height="308.11204"/><rect class="d" x="343.1127" y="-49.67394" width="0.99728" height="308.11204"/><rect class="d" x="345.24849" y="-49.67394" width="0.99728" height="308.11204"/><rect class="d" x="347.3833" y="-49.67394" width="0.99728" height="308.11204"/><rect class="d" x="349.51908" y="-49.67394" width="0.99728" height="308.11204"/><rect class="d" x="351.6539" y="-49.67394" width="0.99728" height="308.11204"/><rect class="d" x="353.78968" y="-49.67394" width="0.99728" height="308.11204"/><rect class="d" x="355.92449" y="-49.67394" width="0.99728" height="308.11204"/><rect class="d" x="358.05979" y="-49.67394" width="0.99728" height="308.11204"/><rect class="d" x="360.19509" y="-49.67394" width="0.99728" height="308.11204"/><rect class="d" x="362.3299" y="-49.67394" width="0.99728" height="308.11204"/><rect class="d" x="364.46568" y="-49.67394" width="0.99728" height="308.11204"/><rect class="d" x="366.60049" y="-49.67394" width="0.99728" height="308.11204"/><rect class="d" x="368.73628" y="-49.67394" width="0.99728" height="308.11204"/><rect class="d" x="370.87109" y="-49.67394" width="0.99728" height="308.11204"/></g></pattern></defs><title>values-customers</title><path class="k" d="M185.81094,53.11157,519.07616,128.109a45.15834,45.15834,0,0,1,34.14213,53.971L525.48987,305.29638A45.15236,45.15236,0,0,1,474.617,340.01126L459.8908,405.44981l-47.98133-79.42564L138.25368,264.44111a45.1584,45.1584,0,0,1-34.14211-53.971L131.84,87.25369A45.15832,45.15832,0,0,1,185.81094,53.11157Z"/><path class="l" d="M368.51892,1.11157,35.2537,76.109A45.15832,45.15832,0,0,0,1.11157,130.08L28.84,253.29638a45.15236,45.15236,0,0,0,50.87288,34.71488l14.72619,65.43855,47.98133-79.42564,273.65579-61.58306a45.15841,45.15841,0,0,0,34.14211-53.971L422.48987,35.25369A45.15832,45.15832,0,0,0,368.51892,1.11157Z"/></svg>