<svg xmlns="http://www.w3.org/2000/svg" xmlns:xlink="http://www.w3.org/1999/xlink" width="9061" height="8798" viewBox="0 0 9061 8798"><defs><clipPath id="b"><rect width="9061" height="8798"/></clipPath></defs><g id="a" clip-path="url(#b)"><g transform="matrix(0.866, -0.5, 0.5, 0.866, -8805.805, 3196.003)"><path d="M6616.774,2144.057c466.632,806.355,741.014,1465.237,908.928,2295.806,170.349,828.743,235.2,1827.348-231.186,2206.25s-1465.237,139.929-2594.523,270.61c-1127.339,128.856-2384.873,629.071-3316.8,250.168C453.337,6786.042-147.627,5528.021,31.6,4451.057c181.056-1078.912,1144.131-1976.646,2073.38-2780.811C3034.6,863.891,3932.332,150.863,4710.7,268.524c780.194,119.487,1439.077,1071.368,1905.831,1875.9Z" transform="translate(6668.997 3012.554)" fill="rgba(209,122,186,0.66)"/></g><path d="M0,0H5871.911V5871.911H0Z" transform="translate(744 1195)" fill="none"/><path d="M3313.279,3104.449V1863.47c0-227.513-186.147-413.66-413.66-413.66H624.49V1036.15L4,1656.64l620.49,620.49V1863.47h827.32v620.49H4v620.49c0,227.513,186.147,413.66,413.66,413.66H831.32c0,343.337,277.152,620.49,620.49,620.49s620.49-277.153,620.49-620.49h1654.64v-413.66ZM1451.81,3724.938c-113.757,0-206.83-93.074-206.83-206.829s93.073-206.83,206.83-206.83,206.83,93.074,206.83,206.83S1565.566,3724.938,1451.81,3724.938Zm1447.81-1240.979H2072.3V1863.47h827.32ZM2692.789,2V415.66H1038.149V829.32h1654.64v413.66l620.49-620.49Z" transform="translate(1814.652 2060.326)" fill="#002b65"/></g></svg>