<svg xmlns="http://www.w3.org/2000/svg" xmlns:xlink="http://www.w3.org/1999/xlink" width="9061" height="8798" viewBox="0 0 9061 8798"><defs><clipPath id="b"><rect width="9061" height="8798"/></clipPath></defs><g id="a" clip-path="url(#b)"><g transform="matrix(-0.588, -0.809, 0.809, -0.588, 4652.7, 18088.777)"><path d="M7236.389,2320.884c510.329,881.864,810.405,1602.446,994.043,2510.792,186.3,906.349,257.228,1998.467-252.835,2412.851s-1602.446,153.032-2837.482,295.951c-1232.907,140.923-2608.2,687.979-3627.394,273.595C495.788,7397.559-161.451,6021.733,34.563,4843.918,232.573,3663.974,1285.834,2682.173,2302.1,1802.7,3318.766,920.84,4300.567,141.041,5151.825,269.721c853.254,130.676,1573.836,1171.694,2084.3,2051.562Z" transform="translate(6668.997 3012.554)" fill="#e8f5fe"/></g><rect width="5626" height="5626" transform="translate(839 1586)" fill="none"/><path d="M3939.325,1577.93V3H2561.261V593.6h-1181.2V3H2V1577.93H1380.064v-590.6H1773.8V2955.993h787.465v590.6H3939.325V1971.662H2561.261v590.6H2167.529V987.331h393.732v590.6ZM986.331,1184.2h-590.6V396.732h590.6Zm1968.663,1181.2h590.6V3152.86h-590.6Zm0-1968.662h590.6V1184.2h-590.6Z" transform="translate(2065.876 2624.314)" fill="#002b65"/></g></svg>