<svg xmlns="http://www.w3.org/2000/svg" xmlns:xlink="http://www.w3.org/1999/xlink" width="9061" height="8798" viewBox="0 0 9061 8798">
  <defs>
    <clipPath id="clip-transparent">
      <rect width="9061" height="8798"/>
    </clipPath>
  </defs>
  <g id="transparent" clip-path="url(#clip-transparent)">
    <g id="Group_27" data-name="Group 27" transform="translate(-3026 -2381)">
      <g id="Layer_1" data-name="Layer 1" transform="matrix(0.966, -0.259, 0.259, 0.966, -5114.671, 2580.932)">
        <path id="Path_141" data-name="Path 141" d="M7236.389,2320.884c510.329,881.864,810.405,1602.446,994.043,2510.792,186.3,906.349,257.228,1998.467-252.835,2412.851s-1602.446,153.032-2837.482,295.951c-1232.907,140.923-2608.2,687.979-3627.394,273.595C495.788,7397.559-161.451,6021.733,34.563,4843.918,232.573,3663.974,1285.834,2682.173,2302.1,1802.7,3318.766,920.84,4300.567,141.041,5151.825,269.721c853.254,130.676,1573.836,1171.694,2084.3,2051.562Z" transform="translate(6668.997 3012.554)" fill="#e8f5fe"/>
      </g>
      <path id="Path_142" data-name="Path 142" d="M0,0H5100.9V5100.9H0Z" transform="translate(6080 4102)" fill="rgba(0,0,0,0)"/>
      <path id="Path_143" data-name="Path 143" d="M1808.57,427.575c59.51,0,106.269,46.758,106.269,106.269V958.919H3190.065V2234.146H3615.14c59.511,0,106.269,46.758,106.269,106.269s-46.758,106.269-106.269,106.269H3190.065V3721.909h-450.58C2594.959,3349.968,2231.52,3084.3,1808.57,3084.3s-786.389,265.672-930.915,637.613H427.075V3271.33c371.941-144.526,637.613-507.965,637.613-930.915S801.142,1554.025,429.2,1409.5l-2.125-450.58H1702.3V533.844c0-59.511,46.758-106.269,106.269-106.269m0-425.075c-293.3,0-531.344,238.042-531.344,531.344H427.075c-233.791,0-422.95,191.284-422.95,425.075v807.643H65.761c316.681,0,573.852,257.17,573.852,573.852S382.442,2914.266,65.761,2914.266H2v807.643c0,233.792,191.284,425.075,425.075,425.075h807.643v-63.761c0-316.681,257.171-573.852,573.852-573.852s573.852,257.17,573.852,573.852v63.761h807.643c233.792,0,425.075-191.284,425.075-425.075V2871.759c293.3,0,531.344-238.042,531.344-531.344S3908.442,1809.07,3615.14,1809.07V958.919c0-233.791-191.284-425.075-425.075-425.075H2339.914C2339.914,240.542,2101.872,2.5,1808.57,2.5Z" transform="translate(5139.075 4577.844)" fill="#002b65"/>
    </g>
  </g>
</svg>
