<svg xmlns="http://www.w3.org/2000/svg" xmlns:xlink="http://www.w3.org/1999/xlink" viewBox="0 0 771.60284 595.29215"><defs><style>.a{fill:none;}.b{fill:#bce5f7;}.c{fill:#cdf2ca;}.d{fill:url(#a);}.e{fill:url(#b);}</style><pattern id="a" width="36.87604" height="21.29041" patternTransform="matrix(1.49742, 5.06005, -2.42963, 0.719, 2041.18152, -2526.7783)" patternUnits="userSpaceOnUse" viewBox="0 0 36.876 21.29"><rect class="a" width="36.87604" height="21.29041"/><polygon class="c" points="36.876 0 36.376 0 36.876 0.288 36.876 0"/><polygon class="c" points="32.279 0 36.876 2.654 36.876 2.077 33.279 0 32.279 0"/><polygon class="c" points="28.181 0 36.876 5.02 36.876 4.443 29.181 0 28.181 0"/><polygon class="c" points="24.084 0 36.876 7.385 36.876 6.808 25.084 0 24.084 0"/><polygon class="c" points="19.987 0 36.876 9.751 36.876 9.174 20.986 0 19.987 0"/><polygon class="c" points="15.89 0 36.876 12.116 36.876 11.54 16.889 0 15.89 0"/><polygon class="c" points="11.793 0 36.876 14.482 36.876 13.905 12.792 0 11.793 0"/><polygon class="c" points="7.695 0 36.876 16.848 36.876 16.271 8.694 0 7.695 0"/><polygon class="c" points="3.598 0 36.876 19.213 36.876 18.636 4.597 0 3.598 0"/><polygon class="c" points="0 0 0 0.289 36.376 21.29 36.876 21.29 36.876 21.002 0.5 0 0 0"/><polygon class="c" points="0 2.654 32.279 21.29 33.279 21.29 0 2.077 0 2.654"/><polygon class="c" points="0 5.02 28.182 21.29 29.181 21.29 0 4.443 0 5.02"/><polygon class="c" points="0 7.385 24.084 21.29 25.084 21.29 0 6.808 0 7.385"/><polygon class="c" points="0 9.751 19.987 21.29 20.986 21.29 0 9.174 0 9.751"/><polygon class="c" points="0 12.116 15.89 21.29 16.889 21.29 0 11.54 0 12.116"/><polygon class="c" points="0 14.482 11.793 21.29 12.792 21.29 0 13.905 0 14.482"/><polygon class="c" points="0 16.848 7.695 21.29 8.694 21.29 0 16.271 0 16.848"/><polygon class="c" points="0 19.213 3.598 21.29 4.597 21.29 0 18.636 0 19.213"/><polygon class="c" points="0 21.29 0.5 21.29 0 21.002 0 21.29"/></pattern><pattern id="b" width="36.87598" height="36.87598" patternTransform="matrix(2.48708, 2.49044, -1.30539, 1.09394, 1302.71565, -1141.04411)" patternUnits="userSpaceOnUse" viewBox="0 0 36.876 36.876"><rect class="a" width="36.87598" height="36.87598"/><rect class="b" y="36.37598" width="36.87598" height="0.5"/><rect class="b" y="-0.5" width="36.87598" height="0.5"/><rect class="b" y="1.66943" width="36.87598" height="0.5"/><rect class="b" y="3.83838" width="36.87598" height="0.5"/><rect class="b" y="6.00781" width="36.87598" height="0.5"/><rect class="b" y="8.17676" width="36.87598" height="0.5"/><rect class="b" y="10.3457" width="36.87598" height="0.5"/><rect class="b" y="12.51514" width="36.87598" height="0.5"/><rect class="b" y="14.68408" width="36.87598" height="0.5"/><rect class="b" y="16.85352" width="36.87598" height="0.5"/><rect class="b" y="19.02246" width="36.87598" height="0.5"/><rect class="b" y="21.19189" width="36.87598" height="0.5"/><rect class="b" y="23.36084" width="36.87598" height="0.5"/><rect class="b" y="25.53027" width="36.87598" height="0.5"/><rect class="b" y="27.69922" width="36.87598" height="0.5"/><rect class="b" y="29.86865" width="36.87598" height="0.5"/><rect class="b" y="32.0376" width="36.87598" height="0.5"/><rect class="b" y="34.20703" width="36.87598" height="0.5"/><rect class="b" y="36.37598" width="36.87598" height="0.5"/></pattern></defs><title>values-teamwork</title><path class="d" d="M146.94422,3.96183,0,236.17716S144.163,370.14835,346.79821,295.55s247.70656,91.83263,247.70656,91.83263l177.09807-260.997S616.275-51.71529,413.82883,14.92708C225.2556,77.00266,146.94422,3.96183,146.94422,3.96183Z"/><polygon class="e" points="692.829 595.292 133.479 407.761 133.479 71.899 692.829 262.847 692.829 595.292"/></svg>