<svg xmlns="http://www.w3.org/2000/svg" xmlns:xlink="http://www.w3.org/1999/xlink" viewBox="0 0 580 580"><defs><style>.a{fill:none;}.b{fill:#cdf2ca;}.c{fill:#cdf2fc;}.d{fill:url(#a);}.e{fill:url(#b);}</style><pattern id="a" width="36.87598" height="36.87598" patternTransform="matrix(3.97523, 4.34538, -2.08647, 1.90874, 3029.78656, -2023.32436)" patternUnits="userSpaceOnUse" viewBox="0 0 36.876 36.876"><rect class="a" width="36.87598" height="36.87598"/><rect class="b" y="36.37598" width="36.87598" height="0.5"/><rect class="b" y="-0.5" width="36.87598" height="0.5"/><rect class="b" y="1.66943" width="36.87598" height="0.5"/><rect class="b" y="3.83838" width="36.87598" height="0.5"/><rect class="b" y="6.00781" width="36.87598" height="0.5"/><rect class="b" y="8.17676" width="36.87598" height="0.5"/><rect class="b" y="10.3457" width="36.87598" height="0.5"/><rect class="b" y="12.51514" width="36.87598" height="0.5"/><rect class="b" y="14.68408" width="36.87598" height="0.5"/><rect class="b" y="16.85352" width="36.87598" height="0.5"/><rect class="b" y="19.02246" width="36.87598" height="0.5"/><rect class="b" y="21.19189" width="36.87598" height="0.5"/><rect class="b" y="23.36084" width="36.87598" height="0.5"/><rect class="b" y="25.53027" width="36.87598" height="0.5"/><rect class="b" y="27.69922" width="36.87598" height="0.5"/><rect class="b" y="29.86865" width="36.87598" height="0.5"/><rect class="b" y="32.0376" width="36.87598" height="0.5"/><rect class="b" y="34.20703" width="36.87598" height="0.5"/><rect class="b" y="36.37598" width="36.87598" height="0.5"/></pattern><pattern id="b" width="36.87598" height="36.87598" patternUnits="userSpaceOnUse" viewBox="0 0 36.876 36.876"><rect class="a" width="36.87598" height="36.87598"/><rect class="c" y="1.66943" width="36.87598" height="0.5"/><rect class="c" y="3.83838" width="36.87598" height="0.5"/><rect class="c" y="6.00781" width="36.87598" height="0.5"/><rect class="c" y="8.17676" width="36.87598" height="0.5"/><rect class="c" y="10.3457" width="36.87598" height="0.5"/><rect class="c" y="12.51514" width="36.87598" height="0.5"/><rect class="c" y="14.68408" width="36.87598" height="0.5"/><rect class="c" y="16.85352" width="36.87598" height="0.5"/><rect class="c" y="19.02246" width="36.87598" height="0.5"/><rect class="c" y="21.19189" width="36.87598" height="0.5"/><rect class="c" y="23.36084" width="36.87598" height="0.5"/><rect class="c" y="25.53027" width="36.87598" height="0.5"/><rect class="c" y="27.69922" width="36.87598" height="0.5"/><rect class="c" y="29.86865" width="36.87598" height="0.5"/><rect class="c" y="32.0376" width="36.87598" height="0.5"/><rect class="c" y="34.20703" width="36.87598" height="0.5"/><rect class="c" y="36.37598" width="36.87598" height="0.5"/></pattern></defs><title>values-comms</title><circle class="d" cx="290" cy="290" r="290"/><circle class="e" cx="290" cy="284" r="159"/></svg>